HIERARCHY
ROOT hip
{
	OFFSET 0.000000 0.000000 0.000000
	CHANNELS 6 Xposition Yposition Zposition Xrotation Zrotation Yrotation 
	JOINT abdomen
	{
		OFFSET 0.000000 3.422050 0.000000
		CHANNELS 3 Xrotation Zrotation Yrotation 
		JOINT chest
		{
			OFFSET 0.000000 8.486693 -0.684411
			CHANNELS 3 Xrotation Zrotation Yrotation 
			JOINT neck
			{
				OFFSET 0.000000 10.266162 -0.273764
				CHANNELS 3 Xrotation Zrotation Yrotation 
				JOINT head
				{
					OFFSET 0.000000 3.148285 0.000000
					CHANNELS 3 Xrotation Zrotation Yrotation 
					End Site
					{
						OFFSET 0.000000 3.148289 0.000000
					}
				}
			}
			JOINT lCollar
			{
				OFFSET 3.422053 6.707223 -0.821293
				CHANNELS 3 Yrotation Zrotation Xrotation 
				JOINT lShldr
				{
					OFFSET 3.285171 0.000000 0.000000
					CHANNELS 3 Zrotation Yrotation Xrotation 
					JOINT lForeArm
					{
						OFFSET 10.129278 0.000000 0.000000
						CHANNELS 3 Yrotation Zrotation Xrotation 
						JOINT lHand
						{
							OFFSET 8.486692 0.000000 0.000000
							CHANNELS 3 Zrotation Yrotation Xrotation 
							End Site
							{
								OFFSET 4.106464 0.000000 0.000000
							}
						}
					}
				}
			}
			JOINT rCollar
			{
				OFFSET -3.558935 6.707223 -0.821293
				CHANNELS 3 Yrotation Zrotation Xrotation 
				JOINT rShldr
				{
					OFFSET -3.148289 0.000000 0.000000
					CHANNELS 3 Zrotation Yrotation Xrotation 
					JOINT rForeArm
					{
						OFFSET -10.266159 0.000000 0.000000
						CHANNELS 3 Yrotation Zrotation Xrotation 
						JOINT rHand
						{
							OFFSET -8.349810 0.000000 0.000000
							CHANNELS 3 Zrotation Yrotation Xrotation 
							End Site
							{
								OFFSET -4.106464 0.000000 0.000000
							}
						}
					}
				}
			}
		}
	}
	JOINT lThigh
	{
		OFFSET 5.338403 -1.642589 1.368821
		CHANNELS 3 Xrotation Zrotation Yrotation 
		JOINT lShin
		{
			OFFSET -2.053232 -20.121670 0.000000
			CHANNELS 3 Xrotation Zrotation Yrotation 
			JOINT lFoot
			{
				OFFSET 0.000000 -19.300380 -1.231939
				CHANNELS 3 Xrotation Yrotation Zrotation 
				End Site
				{
					OFFSET 0.000000 -2.463878 4.653993
				}
			}
		}
	}
	JOINT rThigh
	{
		OFFSET -5.338403 -1.642589 1.368821
		CHANNELS 3 Xrotation Zrotation Yrotation 
		JOINT rShin
		{
			OFFSET 2.053232 -20.121670 0.000000
			CHANNELS 3 Xrotation Zrotation Yrotation 
			JOINT rFoot
			{
				OFFSET 0.000000 -19.300380 -1.231939
				CHANNELS 3 Xrotation Yrotation Zrotation 
				End Site
				{
					OFFSET 0.000000 -2.463878 4.653993
				}
			}
		}
	}
}
MOTION
Frames: 13
Frame Time: 0.033264
-20.001892 6.994019 -7.001720 -30.812038 16.786551 8.291077 16.415091 3.166044 1.313928 24.097424 -1.718566 -0.400820 -0.002775 -14.003296 -8.002490 0.000085 -16.002317 -7.002004 -1.163737 4.194291 0.863290 -51.337185 -7.293252 29.930262 -78.002968 -4.000893 -12.001162 18.142244 5.221894 1.835748 10.133138 -7.463843 0.439259 32.346657 20.878160 27.784283 0.045171 -0.077067 -38.775551 -4.984503 20.685720 -2.302042 -62.460026 16.414465 52.219357 122.172180 -16.102846 4.945968 -40.636845 -34.968658 -45.584686 -87.637459 4.445686 -0.356300 73.167274 3.690267 -2.949850 42.631809 28.308802 -3.071187 
-20.001892 6.994019 -7.001720 -30.812038 16.786551 8.291077 16.415091 3.166044 1.313928 24.097424 -1.718566 -0.400820 -0.002775 -14.003296 -8.002490 0.000085 -16.002317 -7.002004 -1.163737 4.194291 0.863290 -51.505512 -7.439894 29.895912 -78.002968 -4.000893 -12.001162 18.142241 5.221894 1.835748 10.133138 -7.463843 0.439259 32.346657 20.878160 27.784283 0.045171 -0.077067 -38.775551 -5.164907 20.660685 -2.292342 -62.460026 16.414465 52.219357 122.172180 -16.102844 4.945967 -40.636841 -34.968655 -45.584682 -87.637459 4.445686 -0.356300 73.167274 3.690267 -2.949850 42.631809 28.308802 -3.071187 
-20.001892 6.994019 -7.001720 -30.812038 16.786551 8.291077 16.415091 3.166044 1.313928 24.097424 -1.718566 -0.400820 -0.002775 -14.003296 -8.002490 0.000085 -16.002317 -7.002004 -1.163737 4.194291 0.863290 -51.673916 -7.586721 29.861973 -78.002968 -4.000893 -12.001162 18.142241 5.221894 1.835748 10.133138 -7.463843 0.439259 32.346657 20.878160 27.784283 0.045171 -0.077067 -38.775551 -5.345224 20.635672 -2.282561 -62.460026 16.414465 52.219357 122.172180 -16.102844 4.945967 -40.636841 -34.968655 -45.584682 -87.637459 4.445686 -0.356300 73.167274 3.690267 -2.949850 42.631809 28.308802 -3.071187 
-20.001892 6.994019 -7.001720 -30.812038 16.786551 8.291077 16.415091 3.166044 1.313928 24.097424 -1.718566 -0.400820 -0.002775 -14.003296 -8.002490 0.000085 -16.002317 -7.002004 -1.163737 4.194291 0.863290 -51.842392 -7.733733 29.828430 -78.002968 -4.000893 -12.001162 18.142241 5.221894 1.835748 10.133138 -7.463843 0.439259 32.346657 20.878160 27.784283 0.045171 -0.077067 -38.775551 -5.525460 20.610708 -2.272702 -62.460026 16.414465 52.219357 122.172180 -16.102844 4.945967 -40.636841 -34.968655 -45.584682 -87.637459 4.445686 -0.356300 73.167274 3.690267 -2.949850 42.631809 28.308802 -3.071187 
-20.001892 6.994019 -7.001720 -30.812038 16.786551 8.291077 16.415091 3.166044 1.313928 24.097424 -1.718566 -0.400820 -0.002775 -14.003296 -8.002490 0.000085 -16.002317 -7.002004 -1.163737 4.194291 0.863290 -52.010944 -7.880931 29.795303 -78.002968 -4.000893 -12.001162 18.142241 5.221894 1.835748 10.133138 -7.463843 0.439259 32.346657 20.878160 27.784283 0.045171 -0.077067 -38.775551 -5.705608 20.585775 -2.262764 -62.460026 16.414465 52.219357 122.172180 -16.102844 4.945967 -40.636841 -34.968655 -45.584682 -87.637459 4.445686 -0.356300 73.167274 3.690267 -2.949850 42.631809 28.308802 -3.071187 
-20.001892 6.994019 -7.001720 -30.812038 16.786551 8.291077 16.415091 3.166044 1.313928 24.097424 -1.718566 -0.400820 -0.002775 -14.003296 -8.002490 0.000085 -16.002317 -7.002004 -1.163737 4.194291 0.863290 -52.179558 -8.028311 29.762581 -78.002968 -4.000893 -12.001162 18.142241 5.221894 1.835748 10.133138 -7.463843 0.439259 32.346657 20.878160 27.784283 0.045171 -0.077067 -38.775551 -5.885673 20.560886 -2.252747 -62.460026 16.414465 52.219357 122.172180 -16.102844 4.945967 -40.636841 -34.968655 -45.584682 -87.637459 4.445686 -0.356300 73.167274 3.690267 -2.949850 42.631809 28.308802 -3.071187 
-20.001892 6.994019 -7.001720 -30.812038 16.786551 8.291077 16.415091 3.166044 1.313928 24.097424 -1.718566 -0.400820 -0.002775 -14.003296 -8.002490 0.000085 -16.002317 -7.002004 -1.163737 4.194291 0.863290 -52.348251 -8.175864 29.730261 -78.002968 -4.000893 -12.001162 18.142241 5.221894 1.835748 10.133138 -7.463843 0.439259 32.346657 20.878160 27.784283 0.045171 -0.077067 -38.775551 -6.065647 20.536032 -2.242652 -62.460026 16.414465 52.219357 122.172180 -16.102844 4.945967 -40.636841 -34.968655 -45.584682 -87.637459 4.445686 -0.356300 73.167274 3.690267 -2.949850 42.631809 28.308802 -3.071187 
-20.001892 6.994019 -7.001720 -30.812038 16.786551 8.291077 16.415091 3.166044 1.313928 24.097424 -1.718566 -0.400820 -0.002775 -14.003296 -8.002490 0.000085 -16.002317 -7.002004 -1.163737 4.194291 0.863290 -52.517006 -8.323595 29.698353 -78.002968 -4.000893 -12.001162 18.142241 5.221894 1.835748 10.133138 -7.463843 0.439259 32.346657 20.878160 27.784283 0.045171 -0.077067 -38.775551 -6.245536 20.511217 -2.232479 -62.460026 16.414465 52.219357 122.172180 -16.102844 4.945967 -40.636841 -34.968655 -45.584682 -87.637459 4.445686 -0.356300 73.167274 3.690267 -2.949850 42.631809 28.308802 -3.071187 
-20.001892 6.994019 -7.001720 -30.812038 16.786551 8.291077 16.415091 3.166044 1.313928 24.097424 -1.718566 -0.400820 -0.002775 -14.003296 -8.002490 0.000085 -16.002317 -7.002004 -1.163737 4.194291 0.863290 -52.685848 -8.471501 29.666862 -78.002968 -4.000893 -12.001162 18.142241 5.221894 1.835748 10.133138 -7.463843 0.439259 32.346657 20.878160 27.784283 0.045171 -0.077067 -38.775551 -6.425334 20.486441 -2.222228 -62.460026 16.414465 52.219357 122.172180 -16.102844 4.945967 -40.636841 -34.968655 -45.584682 -87.637459 4.445686 -0.356300 73.167274 3.690267 -2.949850 42.631809 28.308802 -3.071187 
-20.001892 6.994019 -7.001720 -30.812038 16.786551 8.291077 16.415091 3.166044 1.313928 24.097424 -1.718566 -0.400820 -0.002775 -14.003296 -8.002490 0.000085 -16.002317 -7.002004 -1.163737 4.194291 0.863290 -52.854755 -8.619576 29.635778 -78.002968 -4.000893 -12.001162 18.142241 5.221894 1.835748 10.133138 -7.463843 0.439259 32.346657 20.878160 27.784283 0.045171 -0.077067 -38.775551 -6.605043 20.461702 -2.211899 -62.460026 16.414465 52.219357 122.172180 -16.102844 4.945967 -40.636841 -34.968655 -45.584682 -87.637459 4.445686 -0.356300 73.167274 3.690267 -2.949850 42.631809 28.308802 -3.071187 
-20.001892 6.994019 -7.001720 -30.812038 16.786551 8.291077 16.415091 3.166044 1.313928 24.097424 -1.718566 -0.400820 -0.002775 -14.003296 -8.002490 0.000085 -16.002317 -7.002004 -1.163737 4.194291 0.863290 -53.023739 -8.767821 29.605101 -78.002968 -4.000893 -12.001162 18.142241 5.221894 1.835748 10.133138 -7.463843 0.439259 32.346657 20.878160 27.784283 0.045171 -0.077067 -38.775551 -6.784663 20.437008 -2.201494 -62.460026 16.414465 52.219357 122.172180 -16.102844 4.945967 -40.636841 -34.968655 -45.584682 -87.637459 4.445686 -0.356300 73.167274 3.690267 -2.949850 42.631809 28.308802 -3.071187 
-20.001892 6.994019 -7.001720 -30.812038 16.786551 8.291077 16.415091 3.166044 1.313928 24.097424 -1.718566 -0.400820 -0.002775 -14.003296 -8.002490 0.000085 -16.002317 -7.002004 -1.163737 4.194291 0.863290 -53.192795 -8.916232 29.574842 -78.002968 -4.000893 -12.001162 18.142241 5.221894 1.835748 10.133138 -7.463843 0.439259 32.346657 20.878160 27.784283 0.045171 -0.077067 -38.775551 -6.964190 20.412346 -2.191011 -62.460026 16.414465 52.219357 122.172180 -16.102844 4.945967 -40.636841 -34.968655 -45.584682 -87.637459 4.445686 -0.356300 73.167274 3.690267 -2.949850 42.631809 28.308802 -3.071187 
-20.001892 6.994019 -7.001720 -30.812038 16.786551 8.291077 16.415091 3.166044 1.313928 24.097424 -1.718566 -0.400820 -0.002775 -14.003296 -8.002490 0.000085 -16.002317 -7.002004 -1.163737 4.194291 0.863290 -53.361935 -9.064812 29.545002 -78.002968 -4.000893 -12.001162 18.142241 5.221894 1.835748 10.133138 -7.463843 0.439259 32.346657 20.878160 27.784283 0.045171 -0.077067 -38.775551 -7.143630 20.387735 -2.180452 -62.460026 16.414465 52.219357 122.172180 -16.102844 4.945967 -40.636841 -34.968655 -45.584682 -87.637459 4.445686 -0.356300 73.167274 3.690267 -2.949850 42.631809 28.308802 -3.071187 
